<svg width="1668" height="882" viewBox="0 0 1668 882" fill="none" xmlns="http://www.w3.org/2000/svg">
<path d="M143.4 480C152.2 489.2 158.6 496 162.6 500.4C167 504.4 170 507.4 171.6 509.4C173.6 511.4 175 512.6 175.8 513C176.6 513.4 178 514.6 180 516.6C182 518.6 185.2 521.8 189.6 526.2C194 530.2 200.6 536.8 209.4 546C216.6 553.2 222.4 561.6 226.8 571.2C231.6 580.4 231.2 590.4 225.6 601.2C222.4 606.8 218.8 610.8 214.8 613.2C210.8 615.2 206.4 616 201.6 615.6C197.2 615.2 192.4 613.8 187.2 611.4C182.4 609 177.6 606 172.8 602.4C163.6 595.6 154.8 587.8 146.4 579C138 569.8 131.2 562.8 126 558C122.4 554.4 120.2 552 119.4 550.8C118.6 550 117.8 549.4 117 549C116.2 548.2 115.4 547.4 114.6 546.6C111.8 543.8 108.8 541 105.6 538.2C102.4 535.4 99.2 532.4 96 529.2V552.6C96 557 96.2 560.2 96.6 562.2C96.6 566.2 96.4 569.2 96 571.2C94.8 575.6 94.2 579.8 94.2 583.8C93.8 585.8 93.4 587.8 93 589.8C92.6 591.4 92 593.2 91.2 595.2C90.8 596 90.4 596.6 90 597C90 597.4 90 598 90 598.8C89.6 599.6 89.2 600.2 88.8 600.6C88.8 601 88.6 601.6 88.2 602.4C86.2 606.4 83 610.2 78.6 613.8C71 618.2 61.6 619.4 50.4 617.4C44.4 616.2 39.8 614 36.6 610.8C33 608.4 30.6 605 29.4 600.6C28.6 598.6 27.8 596.6 27 594.6C26.6 592.2 26 590 25.2 588C24.4 586 24 584.2 24 582.6C24 580.6 24 579 24 577.8V236.4C24 234 24 231.6 24 229.2C24 226.8 24.2 224.4 24.6 222C25 219.6 25.4 217.4 25.8 215.4C26.6 213 27.4 210.8 28.2 208.8C29.8 204.8 31.8 201.6 34.2 199.2C36.2 197.2 38.2 195.8 40.2 195C42.6 193.8 44.8 192.8 46.8 192C48.8 191.6 51 191.4 53.4 191.4C56.2 191 58.8 190.8 61.2 190.8C66.8 190.8 72.4 192.4 78 195.6C83.2 199.2 87 203.8 89.4 209.4C92.6 217 94.2 224.4 94.2 231.6C94.6 235.6 95 241.8 95.4 250.2C95.8 258.2 96 264.2 96 268.2V270.6C96.4 283.8 96.6 296.4 96.6 308.4C96.6 320.4 96.6 333.4 96.6 347.4C96.2 361.4 96 374.8 96 387.6C96 400 96 412.4 96 424.8V431.4C99.2 428.2 102.4 425.2 105.6 422.4C108.8 419.6 111.8 416.6 114.6 413.4C116.2 412.2 117.8 410.8 119.4 409.2L126 402.6C131.2 397.4 138 390.4 146.4 381.6C154.8 372.4 163.6 364.4 172.8 357.6C182.8 350.4 192.4 346 201.6 344.4C211.2 342.8 219.2 347.6 225.6 358.8C231.2 369.6 231.6 379.8 226.8 389.4C222.4 398.6 216.6 407.2 209.4 415.2C200.6 424.4 194 431.2 189.6 435.6C185.2 439.6 182 442.6 180 444.6C178 446.2 176.6 447.2 175.8 447.6C175 448 173.6 449.2 171.6 451.2C170 452.8 167 455.8 162.6 460.2C158.6 464.2 152.2 470.8 143.4 480ZM353.897 390.6C353.897 401.8 353.897 414.4 353.897 428.4C354.297 442.4 354.497 457 354.497 472.2C354.497 487 354.497 501.8 354.497 516.6C354.497 531 354.297 544.4 353.897 556.8C353.497 562.8 352.897 569.4 352.097 576.6C351.297 583.4 349.697 589.8 347.297 595.8C344.897 601.8 341.097 606.8 335.897 610.8C331.097 614.4 324.497 616 316.097 615.6C303.697 614.8 294.697 609.4 289.097 599.4C283.897 589.4 280.897 575.4 280.097 557.4C280.097 548.2 279.897 537.6 279.497 525.6C279.497 513.6 279.297 501.4 278.897 489C278.897 476.6 278.897 464.6 278.897 453C278.897 441 278.897 430.2 278.897 420.6C278.897 415 278.697 408.2 278.297 400.2C278.297 392.2 278.497 384 278.897 375.6C279.297 367.2 280.297 359.2 281.897 351.6C283.497 343.6 286.097 337 289.697 331.8C292.497 328.6 296.497 326.2 301.697 324.6C306.897 322.6 312.297 321.6 317.897 321.6C323.897 321.6 329.497 322.6 334.697 324.6C340.297 326.6 344.297 329.4 346.697 333C348.297 335.4 349.497 338.8 350.297 343.2C351.097 347.6 351.697 352.6 352.097 358.2C352.897 363.4 353.297 369 353.297 375C353.697 380.6 353.897 385.8 353.897 390.6ZM331.097 269.4C318.697 272.6 308.297 271.4 299.897 265.8C291.897 259.8 286.897 251 284.897 239.4C283.297 231 283.897 223.6 286.697 217.2C289.497 210.8 293.697 206 299.297 202.8C304.897 199.2 311.297 197.6 318.497 198C325.697 198.4 332.897 201.2 340.097 206.4C346.897 211.2 351.697 216.8 354.497 223.2C357.697 229.6 358.697 235.8 357.497 241.8C356.697 247.8 354.097 253.4 349.697 258.6C345.297 263.4 339.097 267 331.097 269.4ZM484.017 346.8C497.217 340.4 511.017 335.8 525.417 333C539.817 330.2 554.017 329.6 568.017 331.2C582.417 332.8 596.217 336.6 609.417 342.6C623.017 348.6 635.417 357 646.617 367.8C655.817 377 663.817 388.2 670.617 401.4C677.417 414.2 682.417 426.8 685.617 439.2C692.417 461.2 693.417 483.4 688.617 505.8C683.817 528.2 675.617 549 664.017 568.2C658.417 577 651.417 585 643.017 592.2C635.017 599 626.417 604.6 617.217 609C605.217 614.6 592.217 618.4 578.217 620.4C564.217 622.8 550.617 623.4 537.417 622.2C513.417 621 492.217 615 473.817 604.2C455.817 593.4 441.217 579.6 430.017 562.8C419.217 546 412.017 527 408.417 505.8C405.217 484.2 406.617 462.2 412.617 439.8C419.017 415.8 428.217 396.4 440.217 381.6C452.617 366.4 467.217 354.8 484.017 346.8ZM502.017 427.2C496.017 432.8 491.417 439.8 488.217 448.2C485.017 456.6 483.017 465.4 482.217 474.6C481.417 483.4 482.017 492.4 484.017 501.6C486.417 510.4 490.017 518.4 494.817 525.6C498.817 531.6 506.017 536.6 516.417 540.6C526.817 544.6 537.617 547 548.817 547.8C561.617 548.6 572.817 545.2 582.417 537.6C592.017 529.6 599.217 519.8 604.017 508.2C609.217 496.6 611.617 484 611.217 470.4C610.817 456.8 607.217 444.4 600.417 433.2C595.617 425.2 588.817 419.4 580.017 415.8C571.617 411.8 562.617 409.8 553.017 409.8C543.817 409.4 534.617 410.8 525.417 414C516.217 416.8 508.417 421.2 502.017 427.2ZM963.989 353.4C967.189 361 967.389 369.4 964.589 378.6C962.189 387.8 957.589 393.8 950.789 396.6C947.189 398.2 942.389 399.6 936.389 400.8C930.389 401.6 923.789 402.4 916.589 403.2C909.789 404 902.989 404.6 896.189 405C889.389 405.4 883.589 405.6 878.789 405.6C879.189 417.6 879.589 430 879.989 442.8C880.389 455.2 880.789 467.4 881.189 479.4C881.589 491.4 881.789 503 881.789 514.2C881.789 525 881.589 534.8 881.189 543.6C881.189 549.6 881.189 556.6 881.189 564.6C881.189 572.2 880.589 579.6 879.389 586.8C878.589 594 877.189 600.4 875.189 606C873.189 611.2 870.189 614.6 866.189 616.2C853.789 621.4 842.389 622.8 831.989 620.4C821.989 618.4 814.789 614.2 810.389 607.8C807.189 602.6 804.789 596.6 803.189 589.8C801.589 582.6 800.389 575.4 799.589 568.2C799.189 560.6 798.989 553.4 798.989 546.6C799.389 539.4 799.589 533.2 799.589 528C799.989 511.2 800.189 492.2 800.189 471C800.589 449.4 800.789 427.8 800.789 406.2H791.789C786.989 406.2 780.789 406.2 773.189 406.2C765.989 405.8 758.589 405.2 750.989 404.4C743.789 403.2 736.989 401.8 730.589 400.2C724.189 398.2 719.589 395.4 716.789 391.8C712.389 386.6 709.589 381 708.389 375C707.589 369 707.989 363.4 709.589 358.2C711.589 352.6 714.589 347.8 718.589 343.8C722.589 339.4 727.189 336.6 732.389 335.4C739.589 333.4 749.789 332.4 762.989 332.4C776.189 332 788.589 332 800.189 332.4C799.789 328.4 799.589 324.6 799.589 321C799.589 317 799.389 313.2 798.989 309.6C798.589 304.8 798.389 298.8 798.389 291.6C798.389 284 798.789 276.6 799.589 269.4C800.789 261.8 802.589 254.8 804.989 248.4C807.389 241.6 810.789 236.4 815.189 232.8C821.189 228 827.189 225.4 833.189 225C839.589 224.2 845.389 225 850.589 227.4C856.189 229.8 860.789 233.4 864.389 238.2C868.389 242.6 871.189 247.6 872.789 253.2C873.989 258 874.989 263.8 875.789 270.6C876.589 277 876.989 283.8 876.989 291C877.389 298.2 877.589 305.4 877.589 312.6C877.589 319.8 877.589 326.4 877.589 332.4H883.589C889.589 332.4 896.589 332.2 904.589 331.8C912.589 331.4 920.389 331.6 927.989 332.4C935.989 333.2 943.189 335.2 949.589 338.4C955.989 341.2 960.789 346.2 963.989 353.4Z" fill="white"/>
<path d="M57.9176 659.727V827H38.642V659.727H57.9176ZM144.188 829.614C132.862 829.614 122.925 826.918 114.376 821.528C105.882 816.137 99.2389 808.596 94.4473 798.903C89.7101 789.211 87.3414 777.885 87.3414 764.926C87.3414 751.858 89.7101 740.451 94.4473 730.704C99.2389 720.957 105.882 713.388 114.376 707.998C122.925 702.607 132.862 699.912 144.188 699.912C155.514 699.912 165.424 702.607 173.918 707.998C182.467 713.388 189.11 720.957 193.847 730.704C198.639 740.451 201.035 751.858 201.035 764.926C201.035 777.885 198.639 789.211 193.847 798.903C189.11 808.596 182.467 816.137 173.918 821.528C165.424 826.918 155.514 829.614 144.188 829.614ZM144.188 812.298C152.791 812.298 159.87 810.093 165.424 805.683C170.978 801.272 175.089 795.473 177.757 788.286C180.425 781.098 181.759 773.312 181.759 764.926C181.759 756.541 180.425 748.727 177.757 741.485C175.089 734.243 170.978 728.39 165.424 723.925C159.87 719.46 152.791 717.227 144.188 717.227C135.585 717.227 128.506 719.46 122.952 723.925C117.398 728.39 113.287 734.243 110.619 741.485C107.951 748.727 106.617 756.541 106.617 764.926C106.617 773.312 107.951 781.098 110.619 788.286C113.287 795.473 117.398 801.272 122.952 805.683C128.506 810.093 135.585 812.298 144.188 812.298ZM281.098 876.659C271.787 876.659 263.782 875.461 257.085 873.065C250.387 870.724 244.806 867.62 240.341 863.754C235.931 859.943 232.419 855.859 229.805 851.503L245.16 840.722C246.903 843.009 249.108 845.622 251.776 848.562C254.444 851.557 258.092 854.144 262.721 856.322C267.403 858.554 273.529 859.67 281.098 859.67C291.226 859.67 299.584 857.22 306.172 852.32C312.761 847.419 316.055 839.741 316.055 829.287V803.804H314.422C313.006 806.091 310.991 808.922 308.377 812.298C305.818 815.62 302.116 818.587 297.27 821.201C292.478 823.76 285.998 825.04 277.831 825.04C267.703 825.04 258.609 822.644 250.551 817.852C242.547 813.061 236.203 806.091 231.52 796.943C226.892 787.795 224.578 776.687 224.578 763.619C224.578 750.769 226.837 739.579 231.357 730.05C235.876 720.467 242.165 713.062 250.224 707.835C258.283 702.553 267.594 699.912 278.157 699.912C286.325 699.912 292.805 701.273 297.596 703.996C302.442 706.664 306.145 709.713 308.704 713.143C311.318 716.519 313.333 719.296 314.748 721.474H316.708V701.545H335.331V830.594C335.331 841.375 332.88 850.142 327.98 856.893C323.134 863.7 316.6 868.682 308.377 871.84C300.21 875.053 291.117 876.659 281.098 876.659ZM280.444 807.724C288.176 807.724 294.71 805.955 300.047 802.415C305.383 798.876 309.439 793.785 312.216 787.142C314.993 780.499 316.382 772.549 316.382 763.293C316.382 754.254 315.02 746.277 312.298 739.362C309.575 732.446 305.546 727.028 300.21 723.108C294.874 719.187 288.285 717.227 280.444 717.227C272.277 717.227 265.47 719.296 260.025 723.435C254.635 727.573 250.578 733.127 247.855 740.097C245.187 747.066 243.853 754.798 243.853 763.293C243.853 772.005 245.215 779.71 247.937 786.407C250.714 793.05 254.798 798.277 260.189 802.089C265.634 805.846 272.386 807.724 280.444 807.724ZM370.615 827V701.545H389.89V827H370.615ZM380.416 680.636C376.659 680.636 373.419 679.357 370.696 676.798C368.028 674.238 366.694 671.162 366.694 667.568C366.694 663.974 368.028 660.898 370.696 658.339C373.419 655.78 376.659 654.5 380.416 654.5C384.173 654.5 387.386 655.78 390.054 658.339C392.776 660.898 394.137 663.974 394.137 667.568C394.137 671.162 392.776 674.238 390.054 676.798C387.386 679.357 384.173 680.636 380.416 680.636ZM514.058 729.642L496.743 734.543C495.654 731.657 494.048 728.853 491.924 726.13C489.855 723.353 487.024 721.066 483.43 719.269C479.836 717.472 475.235 716.574 469.627 716.574C461.949 716.574 455.551 718.344 450.433 721.883C445.369 725.368 442.837 729.805 442.837 735.196C442.837 739.988 444.579 743.772 448.064 746.549C451.549 749.326 456.994 751.64 464.399 753.491L483.021 758.065C494.238 760.788 502.597 764.953 508.096 770.562C513.596 776.116 516.345 783.276 516.345 792.043C516.345 799.23 514.276 805.655 510.138 811.318C506.054 816.981 500.337 821.446 492.986 824.713C485.635 827.98 477.086 829.614 467.34 829.614C454.544 829.614 443.953 826.837 435.568 821.283C427.182 815.729 421.873 807.616 419.641 796.943L437.936 792.369C439.679 799.121 442.973 804.185 447.819 807.561C452.72 810.937 459.118 812.625 467.013 812.625C475.997 812.625 483.13 810.719 488.412 806.908C493.748 803.042 496.416 798.413 496.416 793.023C496.416 788.667 494.892 785.018 491.843 782.078C488.793 779.083 484.111 776.851 477.794 775.381L456.885 770.48C445.396 767.758 436.956 763.538 431.566 757.82C426.229 752.049 423.561 744.834 423.561 736.176C423.561 729.098 425.549 722.836 429.524 717.391C433.553 711.946 439.025 707.671 445.941 704.567C452.91 701.464 460.806 699.912 469.627 699.912C482.041 699.912 491.788 702.634 498.867 708.08C506 713.525 511.064 720.712 514.058 729.642ZM599.92 701.545V717.881H534.906V701.545H599.92ZM553.855 671.489H573.131V791.062C573.131 796.508 573.92 800.591 575.499 803.314C577.133 805.982 579.202 807.779 581.707 808.705C584.266 809.576 586.961 810.011 589.793 810.011C591.916 810.011 593.659 809.902 595.02 809.685C596.381 809.412 597.47 809.195 598.287 809.031L602.207 826.347C600.901 826.837 599.076 827.327 596.735 827.817C594.394 828.361 591.426 828.634 587.832 828.634C582.387 828.634 577.051 827.463 571.824 825.121C566.651 822.78 562.349 819.214 558.919 814.422C555.543 809.63 553.855 803.586 553.855 796.29V671.489ZM628.915 827V701.545H648.191V827H628.915ZM638.717 680.636C634.96 680.636 631.72 679.357 628.997 676.798C626.329 674.238 624.995 671.162 624.995 667.568C624.995 663.974 626.329 660.898 628.997 658.339C631.72 655.78 634.96 654.5 638.717 654.5C642.474 654.5 645.686 655.78 648.354 658.339C651.077 660.898 652.438 663.974 652.438 667.568C652.438 671.162 651.077 674.238 648.354 676.798C645.686 679.357 642.474 680.636 638.717 680.636ZM734.461 829.614C722.7 829.614 712.572 826.837 704.078 821.283C695.584 815.729 689.05 808.078 684.476 798.332C679.902 788.585 677.615 777.45 677.615 764.926C677.615 752.185 679.956 740.941 684.639 731.194C689.376 721.393 695.965 713.742 704.405 708.243C712.899 702.689 722.809 699.912 734.135 699.912C742.956 699.912 750.906 701.545 757.984 704.812C765.063 708.08 770.862 712.653 775.381 718.534C779.901 724.415 782.705 731.276 783.794 739.116H764.518C763.048 733.399 759.781 728.335 754.717 723.925C749.708 719.46 742.956 717.227 734.461 717.227C726.947 717.227 720.359 719.187 714.696 723.108C709.087 726.974 704.704 732.446 701.546 739.525C698.442 746.549 696.89 754.798 696.89 764.273C696.89 773.965 698.415 782.405 701.464 789.592C704.568 796.78 708.924 802.361 714.532 806.336C720.195 810.311 726.838 812.298 734.461 812.298C739.471 812.298 744.018 811.427 748.101 809.685C752.185 807.942 755.643 805.438 758.474 802.17C761.306 798.903 763.32 794.983 764.518 790.409H783.794C782.705 797.814 780.01 804.485 775.708 810.42C771.461 816.3 765.825 820.983 758.801 824.468C751.831 827.898 743.718 829.614 734.461 829.614ZM900.836 729.642L883.52 734.543C882.431 731.657 880.825 728.853 878.702 726.13C876.632 723.353 873.801 721.066 870.207 719.269C866.613 717.472 862.012 716.574 856.404 716.574C848.726 716.574 842.328 718.344 837.21 721.883C832.146 725.368 829.614 729.805 829.614 735.196C829.614 739.988 831.357 743.772 834.841 746.549C838.326 749.326 843.771 751.64 851.177 753.491L869.799 758.065C881.016 760.788 889.374 764.953 894.873 770.562C900.373 776.116 903.123 783.276 903.123 792.043C903.123 799.23 901.054 805.655 896.915 811.318C892.832 816.981 887.114 821.446 879.763 824.713C872.412 827.98 863.864 829.614 854.117 829.614C841.321 829.614 830.73 826.837 822.345 821.283C813.96 815.729 808.651 807.616 806.418 796.943L824.714 792.369C826.456 799.121 829.75 804.185 834.596 807.561C839.497 810.937 845.895 812.625 853.79 812.625C862.775 812.625 869.908 810.719 875.189 806.908C880.526 803.042 883.194 798.413 883.194 793.023C883.194 788.667 881.669 785.018 878.62 782.078C875.571 779.083 870.888 776.851 864.572 775.381L843.662 770.48C832.173 767.758 823.733 763.538 818.343 757.82C813.007 752.049 810.339 744.834 810.339 736.176C810.339 729.098 812.326 722.836 816.301 717.391C820.33 711.946 825.803 707.671 832.718 704.567C839.688 701.464 847.583 699.912 856.404 699.912C868.819 699.912 878.565 702.634 885.644 708.08C892.777 713.525 897.841 720.712 900.836 729.642Z" fill="white"/>
<circle cx="1343" cy="424" r="325" fill="white"/>
<path d="M1258.2 302.4C1270.2 296.4 1282.8 292.2 1296 289.8C1309.2 287 1322.2 286.4 1335 288C1348.2 289.2 1360.8 292.6 1372.8 298.2C1384.8 303.4 1396 311 1406.4 321C1416.8 331.4 1424.8 342.8 1430.4 355.2C1436 367.6 1440 381.4 1442.4 396.6C1444 407 1446.6 416.6 1450.2 425.4C1453.8 434.2 1457.6 443 1461.6 451.8C1466 460.6 1470 469.4 1473.6 478.2C1477.6 487 1480.8 496.2 1483.2 505.8C1485.2 515 1484.4 524 1480.8 532.8C1477.6 541.2 1470.8 546.4 1460.4 548.4C1454.4 549.6 1448.6 549.2 1443 547.2C1437.8 544.8 1433 541.6 1428.6 537.6C1424.2 533.2 1420.2 528.6 1416.6 523.8C1413.4 518.6 1410.4 513.8 1407.6 509.4C1398.4 521.4 1388.4 530.8 1377.6 537.6C1366.8 544 1353.8 548.2 1338.6 550.2C1325.8 551.8 1313.6 552.2 1302 551.4C1290.4 550.6 1278 548.4 1264.8 544.8C1247.6 540.4 1233.4 532.8 1222.2 522C1211.4 510.8 1203 498 1197 483.6C1191.4 468.8 1188.4 453 1188 436.2C1187.6 419.4 1189.6 402.8 1194 386.4C1199.6 364.8 1208 347.2 1219.2 333.6C1230.4 320 1243.4 309.6 1258.2 302.4ZM1273.2 372.6C1267.6 378.2 1263.2 384.8 1260 392.4C1256.8 400 1254.8 408 1254 416.4C1253.6 424.8 1254.4 433.2 1256.4 441.6C1258.4 450 1261.6 457.4 1266 463.8C1270 469.4 1276.8 474.2 1286.4 478.2C1296 481.8 1306 484 1316.4 484.8C1328.4 485.6 1338.8 482.4 1347.6 475.2C1356.8 468 1363.6 459 1368 448.2C1372.8 437 1375 425.2 1374.6 412.8C1374.2 400 1370.8 388.4 1364.4 378C1359.6 370.4 1353.2 364.8 1345.2 361.2C1337.6 357.6 1329.4 355.8 1320.6 355.8C1311.8 355.4 1303 356.8 1294.2 360C1285.8 362.8 1278.8 367 1273.2 372.6Z" fill="#FF214F"/>
</svg>
